<?xml version="1.0"?>
<svg xmlns="http://www.w3.org/2000/svg" height="512px" viewBox="-26 0 511 511.999" width="512px"><g><path d="m348.28125 435.75-.347656.34375c-3.894532 3.914062-3.878906 10.246094.035156 14.140625 1.949219 1.941406 4.5 2.914063 7.054688 2.914063 2.5625 0 5.132812-.984376 7.085937-2.949219l.28125-.277344c3.914063-3.894531 3.925781-10.226563.03125-14.140625s-10.226563-3.929688-14.140625-.03125zm0 0" data-original="#000000" class="active-path" data-old_color="#000000" fill="#FFFFFF"/><path d="m367.707031.0273438c-25.308593-.6015628-49.289062 8.8242182-67.40625 26.5195312-18.121093 17.703125-28.101562 41.398437-28.101562 66.726563 0 1.097656.035156 2.1875.074219 3.28125-19.339844-5.675782-39.398438-8.554688-59.773438-8.554688-116.898438 0-212 95.101562-212 212 0 116.894531 95.101562 212 212 212 41.78125 0 82.203125-12.144531 116.898438-35.117188 4.605468-3.050781 5.867187-9.253906 2.816406-13.859374-3.046875-4.605469-9.253906-5.867188-13.859375-2.816407-31.410157 20.796875-68.011719 31.792969-105.855469 31.792969-34.582031 0-67.050781-9.195312-95.105469-25.257812v-37.316407c0-16.554687-13.46875-30.019531-30.019531-30.019531h-39.085938c-17.628906-29.015625-27.789062-63.046875-27.789062-99.40625 0-17.457031 2.355469-34.367188 6.738281-50.453125h68.007813c18.355468 0 33.289062-14.929687 33.289062-33.285156v-.957031c0-7.324219 5.957032-13.285157 13.285156-13.285157 18.351563 0 33.285157-14.933593 33.285157-33.289062v-5.09375c0-18.351563-14.933594-33.285157-33.285157-33.285157h-19.144531c26.820313-14.257812 57.390625-22.351562 89.824219-22.351562 21.503906 0 42.609375 3.527344 62.734375 10.480469.167969.058593.339844.097656.507813.148437 1.324218 4.683594 3.003906 9.265625 5.042968 13.6875h-10.539062c-31.523438 0-57.171875 25.644532-57.171875 57.167969 0 4.148437-3.375 7.519531-7.519531 7.519531-22.605469 0-40.996094 18.394532-40.996094 41 0 10.339844 3.3125 19.910156 8.917968 27.734375h-35.609374c-28.21875 0-51.175782 22.957031-51.175782 51.175781v13.222657c0 26.339843 21.429688 47.769531 47.769532 47.769531 10.460937 0 18.972656 8.511719 18.972656 18.972656v51.851563c0 12.652343 7.628906 23.761719 19.433594 28.308593 3.597656 1.382813 7.316406 2.054688 10.988281 2.054688 8.378906 0 16.511719-3.5 22.410156-10.023438 3.019531-3.34375 7.339844-5.261718 11.847656-5.261718 19.832031 0 35.964844-16.132813 35.964844-35.964844v-37.558594c0-4.453125 3.621094-8.074218 8.074219-8.074218h8.34375c15.480468 0 28.078125-12.59375 28.078125-28.078126v-20.464843c0-15.480469-12.597657-28.078125-28.078125-28.078125-4.453125 0-8.074219-3.621094-8.074219-8.074219 0-4.160156-.8125-8.132813-2.269531-11.773437h143.8125c.34375 4.71875.535156 9.46875.535156 14.257812 0 38.332031-11.257812 75.332031-32.554688 107-3.082031 4.585938-1.867187 10.796875 2.714844 13.878906 1.714844 1.152344 3.652344 1.703125 5.574219 1.703125 3.214844 0 6.375-1.550781 8.304687-4.417969 23.523438-34.984374 35.960938-75.84375 35.960938-118.164062 0-33.015625-7.382812-64.652344-21.941406-94.027344-.023438-.046875-.046875-.089844-.070313-.132812l-2.238281-4.347656c-.117188-.234376-.253906-.457032-.390625-.675782l38.089844-48.816406c.019531-.03125.042969-.058594.0625-.085938 13.226562-16.34375 20.589843-36.917968 20.738281-57.96875.355469-50.605468-40.484375-92.734374-91.042969-93.9179682zm-280.332031 419.3789062c5.523438 0 10.019531 4.496094 10.019531 10.019531v24.148438c-13.113281-9.851563-24.921875-21.347657-35.136719-34.167969zm54.445312-269.054688c7.324219 0 13.285157 5.960938 13.285157 13.285157v5.09375c0 7.328125-5.960938 13.289062-13.285157 13.289062-18.355468 0-33.285156 14.933594-33.285156 33.285157v.957031c0 7.328125-5.960937 13.285156-13.289062 13.285156h-61.359375c12.363281-31.230469 32.699219-58.464844 58.472656-79.195313zm100.601563 147.164063c0 15.480469 12.59375 28.074219 28.074219 28.074219 4.453125 0 8.078125 3.625 8.078125 8.074218v20.46875c0 4.453126-3.625 8.078126-8.078125 8.078126h-8.34375c-15.476563 0-28.074219 12.59375-28.074219 28.074218v37.554688c0 8.804687-7.160156 15.96875-15.964844 15.96875-10.152343 0-19.878906 4.320312-26.6875 11.851562-4.414062 4.882813-9.820312 3.3125-11.375 2.714844-1.550781-.601562-6.617187-3.0625-6.617187-9.644531v-51.851563c0-21.488281-17.484375-38.972656-38.972656-38.972656-15.3125 0-27.769532-12.457031-27.769532-27.769531v-13.222657c0-17.191406 13.984375-31.175781 31.175782-31.175781h92.777343c6.496094 0 11.777344 5.285157 11.777344 11.777344zm159.042969-31.777344h-189.171875c-15.292969 0-27.734375-12.441406-27.734375-27.734375 0-11.578125 9.417968-21 20.996094-21 15.175781 0 27.519531-12.34375 27.519531-27.519531 0-20.496094 16.675781-37.167969 37.171875-37.167969h22.984375c.03125.039063.054687.078125.085937.117188l56.390625 72.246094c3.816407 4.890624 9.566407 7.695312 15.769531 7.695312 6.203126 0 11.949219-2.804688 15.765626-7.699219l5.015624-6.425781c7.183594 15.222656 12.269532 31.101562 15.207032 47.488281zm20.839844-126.210937c-.109376.136718-.214844.269531-.316407.410156l-56.511719 72.4375-55.839843-71.539062c-.207031-.320313-.4375-.628907-.683594-.925782-10.800781-13.078125-16.753906-29.640625-16.753906-46.632812 0-19.898438 7.839843-38.515625 22.078125-52.421875 14.230468-13.902344 33.042968-21.296875 52.960937-20.832031 39.710938.929687 71.789063 34.027343 71.511719 73.777343-.121094 16.863281-5.804688 32.675781-16.445312 45.726563zm0 0" data-original="#000000" class="active-path" data-old_color="#000000" fill="#FFFFFF"/><path d="m365.476562 43.273438c-27.570312 0-50 22.429687-50 50 0 27.570312 22.429688 50 50 50 27.570313 0 50-22.429688 50-50 0-27.570313-22.429687-50-50-50zm0 80c-16.542968 0-30-13.457032-30-30 0-16.539063 13.457032-30 30-30 16.542969 0 30 13.460937 30 30 0 16.542968-13.457031 30-30 30zm0 0" data-original="#000000" class="active-path" data-old_color="#000000" fill="#FFFFFF"/></g> </svg>
