<?xml version="1.0"?>
<svg xmlns="http://www.w3.org/2000/svg" height="512px" viewBox="-46 0 511 511.99799" width="512px" class=""><g><path d="m400.316406 226.628906c-7.269531-7.9375-16.089844-14.082031-25.824218-18.109375 13.929687-14.421875 22.515624-34.039062 22.515624-55.628906 0-28.257813-14.710937-53.148437-36.875-67.410156 1.074219-4.921875 1.617188-9.957031 1.617188-15.058594-.003906-38.832031-31.59375-70.421875-70.425781-70.421875-23.398438 0-44.917969 11.46875-57.976563 30.421875-7.453125-2.0625-15.300781-3.167969-23.402344-3.167969-8.699218 0-17.109374 1.273438-25.050781 3.644532-13.023437-19.238282-34.707031-30.898438-58.300781-30.898438-38.828125 0-70.421875 31.589844-70.421875 70.421875 0 5.496094.628906 10.917969 1.875 16.199219-21.199219 14.425781-35.152344 38.75-35.152344 66.269531 0 21.585937 8.585938 41.207031 22.519531 55.625-9.734374 4.03125-18.558593 10.175781-25.828124 18.113281-12.308594 13.4375-19.085938 30.882813-19.085938 49.117188v66.738281c0 17.0625 13.878906 30.941406 30.941406 30.941406 3.832032 0 7.507813-.699219 10.898438-1.980469v130.484376c0 5.558593 4.507812 10.066406 10.070312 10.066406h101.269532.039062.035156 112.277344.09375.097656 101.273438c5.558594 0 10.066406-4.507813 10.066406-10.066406v-130.484376c3.390625 1.28125 7.066406 1.980469 10.902344 1.980469 17.058594 0 30.941406-13.878906 30.941406-30.941406v-66.734375c0-18.234375-6.78125-35.679688-19.089844-49.121094zm-23.445312-73.738281c0 33.066406-26.902344 59.964844-59.964844 59.964844-1.441406 0-2.886719-.050781-4.328125-.152344-3.011719-5.453125-6.683594-10.570313-10.964844-15.246094-8.324219-9.09375-18.511719-16.03125-29.757812-20.417969 15.929687-15.890624 25.800781-37.851562 25.800781-62.074218 0-6.234375-.65625-12.320313-1.898438-18.195313 6.722657-2.523437 13.910157-3.839843 21.148438-3.839843 8.914062 0 17.382812 1.957031 24.992188 5.460937.867187.703125 1.867187 1.273437 2.980468 1.664063.273438.097656.546875.183593.824219.253906 18.5625 10.203125 31.167969 29.949218 31.167969 52.582031zm-213.050782 123.671875c0-5.5625-4.507812-10.070312-10.066406-10.070312-5.5625 0-10.070312 4.507812-10.070312 10.070312v48.597656c0 7.207032-5.863282 13.074219-13.070313 13.074219-7.210937 0-13.074219-5.867187-13.074219-13.074219v-73.988281c0-8.75 1.863282-17.066406 5.230469-24.554687.113281-.222657.21875-.449219.3125-.683594 8.265625-17.777344 25.074219-30.765625 45.558594-33.605469 9.503906 5.09375 20.054687 8.488281 31.234375 9.773437v40.363282c0 5.5625 4.507812 10.070312 10.070312 10.070312 5.558594 0 10.066407-4.507812 10.066407-10.070312v-40.363282c11.183593-1.285156 21.730469-4.679687 31.238281-9.773437 29.316406 4.066406 51.097656 28.902344 51.097656 58.84375v73.988281c0 7.207032-5.863281 13.074219-13.070312 13.074219-7.210938 0-13.074219-5.867187-13.074219-13.074219 0-.496094-.035156-.984375-.105469-1.464844v-38.089843c0-5.5625-4.507812-10.070313-10.070312-10.070313-5.558594 0-10.066406 4.507813-10.066406 10.070313v45.378906h-92.140626zm127.503907-256.425781c27.726562 0 50.285156 22.558593 50.285156 50.285156 0 2.066406-.125 4.117187-.371094 6.148437-7.675781-2.453124-15.851562-3.777343-24.332031-3.777343-9.417969 0-18.785156 1.671875-27.578125 4.882812-7.839844-16.628906-20.757813-30.410156-36.738281-39.339843 9.441406-11.417969 23.53125-18.199219 38.734375-18.199219zm-13.808594 94.828125c0 37.257812-30.3125 67.574218-67.570313 67.574218-37.257812 0-67.574218-30.3125-67.574218-67.574218 0-37.261719 30.3125-67.574219 67.574218-67.574219 37.261719 0 67.570313 30.3125 67.570313 67.574219zm-201.207031-44.542969c0-27.726563 22.558594-50.285156 50.285156-50.285156 15.539062 0 29.921875 7.085937 39.359375 18.96875-15.359375 8.941406-27.769531 22.410156-35.390625 38.570312-8.789062-3.214843-18.152344-4.882812-27.566406-4.882812-9.183594 0-18.011719 1.550781-26.234375 4.410156-.300781-2.234375-.453125-4.5-.453125-6.78125zm26.6875 22.507813c7.230468 0 14.417968 1.3125 21.136718 3.835937-1.242187 5.871094-1.898437 11.960937-1.898437 18.199219 0 24.222656 9.871094 46.183594 25.800781 62.070312-11.257812 4.394532-21.460937 11.34375-29.789062 20.449219-4.269532 4.667969-7.929688 9.777344-10.9375 15.214844-1.433594.101562-2.875.152343-4.3125.152343-33.0625 0-59.964844-26.898437-59.964844-59.960937s26.902344-59.960937 59.964844-59.960937zm-71.558594 260.359374c-5.957031 0-10.800781-4.84375-10.800781-10.800781v-66.738281c0-26.40625 19.128906-48.320312 44.925781-52.054688 10.210938 5.421876 21.730469 8.699219 33.953125 9.222657-1.394531 5.929687-2.113281 12.050781-2.113281 18.253906v73.988281c0 8.238282 3.015625 15.785156 8 21.59375h-42.925782v-48.101562c0-5.5625-4.507812-10.070313-10.066406-10.070313-5.5625 0-10.070312 4.507813-10.070312 10.070313v42.4375c-.0625.457031-.097656.921875-.097656 1.398437 0 5.953125-4.84375 10.800781-10.804688 10.800781zm112.171875 138.574219h-26.054687v-75.640625c0-5.558594-4.507813-10.066406-10.070313-10.066406-5.558594 0-10.066406 4.507812-10.066406 10.066406v75.640625h-34.941407v-124.972656h81.132813zm112.351563 0h-36v-96.207031c0-5.5625-4.507813-10.070312-10.066407-10.070312-5.5625 0-10.070312 4.507812-10.070312 10.070312v96.207031h-36v-140.738281h92.136719zm101.464843 0h-34.941406v-75.640625c0-5.558594-4.507813-10.066406-10.066406-10.066406-5.5625 0-10.070313 4.507812-10.070313 10.066406v75.640625h-26.054687v-124.972656h81.132812zm41.839844-149.375c0 5.957031-4.84375 10.800781-10.800781 10.800781-5.960938 0-10.804688-4.84375-10.804688-10.800781 0-.472656-.035156-.9375-.097656-1.394531v-42.441406c0-5.5625-4.507812-10.070313-10.070312-10.070313-5.558594 0-10.066407 4.507813-10.066407 10.070313v48.101562h-42.9375c4.984375-5.808594 8-13.355468 8-21.59375v-73.988281c0-6.203125-.71875-12.320313-2.113281-18.253906 12.226562-.523438 23.75-3.796875 33.964844-9.222657 25.800781 3.734376 44.925781 25.652344 44.925781 52.054688zm0 0" data-original="#000000" class="active-path" data-old_color="#000000" fill="#FFFFFF"/><path d="m219.316406 276.914062-.183594-.453124c-2.085937-5.15625-7.953124-7.640626-13.109374-5.558594-5.15625 2.085937-7.644532 7.957031-5.558594 13.113281l.183594.453125c1.585937 3.917969 5.355468 6.292969 9.335937 6.292969 1.257813 0 2.539063-.234375 3.773437-.738281 5.15625-2.082032 7.644532-7.953126 5.558594-13.109376zm0 0" data-original="#000000" class="active-path" data-old_color="#000000" fill="#FFFFFF"/></g> </svg>
